<svg xmlns="http://www.w3.org/2000/svg" width="538" height="115" viewBox="0 0 538 115" fill="none"><g clip-path="url(#clip0_173_512)"><path d="M343.55 9.07996H332.09V20.54H343.55V9.07996Z" fill="#27FAFF"></path><path d="M343.55 31.96H332.09V89.22H343.55V31.96Z" fill="#F5F5F5"></path><path d="M366.1 43.42L369.53 31.96H426.82C436.32 31.96 444.01 39.63 444.01 49.13V89.22H381.01C371.51 89.22 363.82 81.55 363.82 72.05C363.82 62.55 371.49 54.88 381.01 54.88H432.55V49.17C432.55 45.96 430.03 43.46 426.84 43.46H366.12V43.43H366.11L366.1 43.42ZM432.53 77.76V66.3H380.99C377.78 66.3 375.28 68.8 375.28 72.01C375.28 75.22 377.78 77.72 380.99 77.72H432.53V77.75V77.76Z" fill="#F5F5F5"></path><path d="M534.26 31.96L537.69 43.42H489.58C483.87 43.42 478.12 49.13 478.12 54.88V89.22H466.66V31.96H478.12V42.5C478.57 36.66 483.51 31.96 489.58 31.96H534.26Z" fill="#F5F5F5"></path><path d="M281.81 31.96C275.73 31.96 270.8 36.66 270.35 42.5V31.96H258.89V89.22H270.35V54.88C270.35 49.17 276.06 43.42 281.81 43.42H309.25C308.12 39.61 306.95 35.8 305.82 31.96H281.81Z" fill="#F5F5F5"></path><path d="M244.53 90.11L235.73 81.31V32.16H172.73C163.23 32.16 155.54 39.83 155.54 49.33V72.22C155.54 81.72 163.21 89.39 172.73 89.39H227.69L236.49 98.19L244.56 90.14L244.53 90.11ZM172.71 77.93C169.5 77.93 167 75.43 167 72.22V49.33C167 46.12 169.5 43.62 172.71 43.62H224.25V69.92L216.21 77.95H172.68H172.71V77.93Z" fill="#F5F5F5"></path><path d="M85.28 21.85H32.77C26.73 21.85 21.85 26.74 21.85 32.77V85.27C11.04 85.27 2.05 77.4 0.31 67.08C0.1 65.89 0 64.67 0 63.42V21.85C0 9.78 9.79 0 21.85 0H63.44C64.69 0 65.91 0.1 67.1 0.31C77.42 2.05 85.28 11.03 85.28 21.85Z" fill="#0039FF"></path><path d="M104.87 114.41H35.36C15.83 114.41 0 98.5801 0 79.0501C0 79.0501 0.1 73.1801 0.31 74.3701C2.05 84.6901 11.03 92.5601 21.85 92.5601H74.36C79.87 92.6501 84.88 94.7801 88.68 98.2301L88.87 98.4101C89.22 98.7301 89.56 99.0601 89.87 99.4101L104.87 114.41Z" fill="#00F7FF"></path><path d="M79.0599 0C79.0599 0 73.1899 0.1 74.3799 0.31C84.6999 2.05 92.5599 11.03 92.5599 21.85V74.01C92.5599 79.6 94.6599 84.7 98.1299 88.57L114.41 104.85V35.35C114.41 15.82 98.5799 0 79.0599 0Z" fill="#00F7FF"></path></g><defs><clipPath id="clip0_173_512"><rect width="537.69" height="114.41" fill="white"></rect></clipPath></defs></svg>